<svg width="148" height="66" viewBox="0 0 148 66" fill="none" xmlns="http://www.w3.org/2000/svg">
<path d="M123.413 65.429C121.991 65.429 120.874 64.9052 120.062 63.8576C119.249 62.8449 118.843 61.6227 118.843 60.1909C118.843 58.7592 119.249 57.537 120.062 56.5243C120.874 55.4766 121.991 54.9528 123.413 54.9528H140.505C141.927 54.9528 143.044 55.4766 143.856 56.5243C144.669 57.537 145.075 58.7592 145.075 60.1909C145.075 61.6227 144.669 62.8449 143.856 63.8576C143.044 64.9052 141.927 65.429 140.505 65.429H123.413ZM140.962 58.7243C139.54 58.7243 138.423 58.2179 137.611 57.2052C136.798 56.1576 136.392 54.9179 136.392 53.4862C136.392 52.0544 136.798 50.8322 137.611 49.8195C138.423 48.7719 139.54 48.2481 140.962 48.2481H143.43C144.852 48.2481 145.969 48.7719 146.781 49.8195C147.594 50.8322 148 52.0544 148 53.4862C148 54.9179 147.594 56.1576 146.781 57.2052C145.969 58.2179 144.852 58.7243 143.43 58.7243H140.962ZM126.338 52.0195C124.916 52.0195 123.799 51.5132 122.986 50.5005C122.174 49.4528 121.768 48.2132 121.768 46.7814C121.768 45.3497 122.174 44.1274 122.986 43.1147C123.799 42.0671 124.916 41.5433 126.338 41.5433H140.505C141.927 41.5433 143.044 42.0671 143.856 43.1147C144.669 44.1274 145.075 45.3497 145.075 46.7814C145.075 48.2132 144.669 49.4528 143.856 50.5005C143.044 51.5132 141.927 52.0195 140.505 52.0195H126.338ZM121.463 45.3147C120.041 45.3147 118.924 44.8084 118.112 43.7957C117.299 42.7481 116.893 41.5084 116.893 40.0766C116.893 38.6449 117.299 37.4227 118.112 36.41C118.924 35.3624 120.041 34.8386 121.463 34.8386H125.881C127.303 34.8386 128.42 35.3624 129.232 36.41C130.045 37.4227 130.451 38.6449 130.451 40.0766C130.451 41.5084 130.045 42.7481 129.232 43.7957C128.42 44.8084 127.303 45.3147 125.881 45.3147H121.463ZM126.338 38.61C124.916 38.61 123.799 38.1036 122.986 37.0909C122.174 36.0433 121.768 34.8036 121.768 33.3719C121.768 31.9401 122.174 30.7179 122.986 29.7052C123.799 28.6576 124.916 28.1338 126.338 28.1338H143.43C144.852 28.1338 145.969 28.6576 146.781 29.7052C147.594 30.7179 148 31.9401 148 33.3719C148 34.8036 147.594 36.0433 146.781 37.0909C145.969 38.1036 144.852 38.61 143.43 38.61H126.338Z" fill="#343434"/>
<path d="M94.0898 65.429C92.668 65.429 91.5509 64.9052 90.7385 63.8576C89.926 62.8449 89.5198 61.6227 89.5198 60.1909C89.5198 58.7592 89.926 57.537 90.7385 56.5243C91.5509 55.4766 92.668 54.9528 94.0898 54.9528H117.232C118.654 54.9528 119.771 55.4766 120.583 56.5243C121.396 57.537 121.802 58.7592 121.802 60.1909C121.802 61.6227 121.396 62.8449 120.583 63.8576C119.771 64.9052 118.654 65.429 117.232 65.429H94.0898ZM95.165 58.7243C93.7432 58.7243 92.6261 58.2179 91.8136 57.2052C91.0012 56.1576 90.5949 54.9179 90.5949 53.4862C90.5949 52.0544 91.0012 50.8322 91.8136 49.8195C92.6261 48.7719 93.7432 48.2481 95.165 48.2481H94.6579C96.0797 48.2481 97.1968 48.7719 98.0093 49.8195C98.8217 50.8322 99.2279 52.0544 99.2279 53.4862C99.2279 54.9179 98.8217 56.1576 98.0093 57.2052C97.1968 58.2179 96.0797 58.7243 94.6579 58.7243H95.165ZM115.739 58.7243C114.317 58.7243 113.2 58.2179 112.388 57.2052C111.575 56.1576 111.169 54.9179 111.169 53.4862C111.169 52.0544 111.575 50.8322 112.388 49.8195C113.2 48.7719 114.317 48.2481 115.739 48.2481H116.207C117.629 48.2481 118.746 48.7719 119.558 49.8195C120.371 50.8322 120.777 52.0544 120.777 53.4862C120.777 54.9179 120.371 56.1576 119.558 57.2052C118.746 58.2179 118.654 58.7243 117.232 58.7243H115.739ZM94.1901 52.0195C92.7683 52.0195 91.6511 51.5132 90.8387 50.5005C90.0262 49.4528 89.62 48.2132 89.62 46.7814C89.62 45.3497 90.0262 44.1274 90.8387 43.1147C91.6511 42.0671 92.7683 41.5433 94.1901 41.5433H94.6579C96.0797 41.5433 97.1968 42.0671 98.0093 43.1147C98.8217 44.1274 99.2279 45.3497 99.2279 46.7814C99.2279 48.2132 98.8217 49.4528 98.0093 50.5005C97.1968 51.5132 96.0797 52.0195 94.6579 52.0195H94.1901ZM115.739 52.0195C114.317 52.0195 113.2 51.5132 112.388 50.5005C111.575 49.4528 111.169 48.2132 111.169 46.7814C111.169 45.3497 111.575 44.1274 112.388 43.1147C113.2 42.0671 114.317 41.5433 115.739 41.5433H116.207C117.629 41.5433 118.746 42.0671 119.558 43.1147C120.371 44.1274 120.777 45.3497 120.777 46.7814C120.777 48.2132 120.371 49.4528 119.558 50.5005C118.746 51.5132 117.629 52.0195 116.207 52.0195H115.739ZM94.1901 45.3147C92.7683 45.3147 91.6511 44.8084 90.8387 43.7957C90.0262 42.7481 89.62 41.5084 89.62 40.0766C89.62 38.6449 90.0262 37.4227 90.8387 36.41C91.6511 35.3624 92.7683 34.8386 94.1901 34.8386H94.6579C96.0797 34.8386 97.1968 35.3624 98.0093 36.41C98.8217 37.4227 99.2279 38.6449 99.2279 40.0766C99.2279 41.5084 98.8217 42.7481 98.0093 43.7957C97.1968 44.8084 96.0797 45.3147 94.6579 45.3147H94.1901ZM115.739 45.3147C114.317 45.3147 113.2 44.8084 112.388 43.7957C111.575 42.7481 111.169 41.5084 111.169 40.0766C111.169 38.6449 111.575 37.4227 112.388 36.41C113.2 35.3624 114.317 34.8386 115.739 34.8386H116.207C117.629 34.8386 118.746 35.3624 119.558 36.41C120.371 37.4227 120.777 38.6449 120.777 40.0766C120.777 41.5084 120.371 42.7481 119.558 43.7957C118.746 44.8084 117.629 45.3147 116.207 45.3147H115.739ZM94.1901 38.61C92.7683 38.61 91.6511 38.1036 90.8387 37.0909C90.0262 36.0433 89.62 34.8036 89.62 33.3719C89.62 31.9401 90.0262 30.7179 90.8387 29.7052C91.6511 28.6576 92.7683 28.1338 94.1901 28.1338H94.6579C96.0797 28.1338 97.1968 28.6576 98.0093 29.7052C98.8217 30.7179 99.2279 31.9401 99.2279 33.3719C99.2279 34.8036 98.8217 36.0433 98.0093 37.0909C97.1968 38.1036 96.0797 38.61 94.6579 38.61H94.1901ZM115.739 38.61C114.317 38.61 113.2 38.1036 112.388 37.0909C111.575 36.0433 111.169 34.8036 111.169 33.3719C111.169 31.9401 111.575 30.7179 112.388 29.7052C113.2 28.6576 114.317 28.1338 115.739 28.1338H116.207C117.629 28.1338 118.746 28.6576 119.558 29.7052C120.371 30.7179 120.777 31.9401 120.777 33.3719C120.777 34.8036 120.371 36.0433 119.558 37.0909C118.746 38.1036 117.629 38.61 116.207 38.61H115.739Z" fill="#343434"/>
<path d="M60.1421 65.429C58.7203 65.429 57.6032 64.9052 56.7907 63.8576C55.9782 62.8449 55.572 61.6227 55.572 60.1909C55.572 58.7592 55.9782 57.537 56.7907 56.5243C57.6032 55.4766 58.7203 54.9528 60.1421 54.9528H63.5848C65.0066 54.9528 66.1238 55.4766 66.9362 56.5243C67.7487 57.537 68.1549 58.7592 68.1549 60.1909C68.1549 61.6227 67.7487 62.8449 66.9362 63.8576C66.1238 64.9052 65.0066 65.429 63.5848 65.429H60.1421ZM60.1421 58.7243C58.7203 58.7243 57.6032 58.2179 56.7907 57.2052C55.9782 56.1576 55.572 54.9179 55.572 53.4862C55.572 52.0544 55.9782 50.8322 56.7907 49.8195C57.6032 48.7719 58.7203 48.2481 60.1421 48.2481H63.5848C65.0066 48.2481 66.1238 48.7719 66.9362 49.8195C67.7487 50.8322 68.1549 52.0544 68.1549 53.4862C68.1549 54.9179 67.7487 56.1576 66.9362 57.2052C66.1238 58.2179 65.0066 58.7243 63.5848 58.7243H60.1421ZM60.1421 52.0195C58.7203 52.0195 57.6032 51.5132 56.7907 50.5005C55.9782 49.4528 55.572 48.2132 55.572 46.7814C55.572 45.3497 55.9782 44.1274 56.7907 43.1147C57.6032 42.0671 58.7203 41.5433 60.1421 41.5433H63.5848C65.0066 41.5433 66.1238 42.0671 66.9362 43.1147C67.7487 44.1274 68.1549 45.3497 68.1549 46.7814C68.1549 48.2132 67.7487 49.4528 66.9362 50.5005C66.1238 51.5132 65.0066 52.0195 63.5848 52.0195H60.1421ZM60.1421 45.3147C58.7203 45.3147 57.6032 44.8084 56.7907 43.7957C55.9782 42.7481 55.572 41.5084 55.572 40.0766C55.572 38.6449 55.9782 37.4227 56.7907 36.41C57.6032 35.3624 58.7203 34.8386 60.1421 34.8386H63.5848C65.0066 34.8386 66.1238 35.3624 66.9362 36.41C67.7487 37.4227 68.1549 38.6449 68.1549 40.0766C68.1549 41.5084 67.7487 42.7481 66.9362 43.7957C66.1238 44.8084 65.0066 45.3147 63.5848 45.3147H60.1421ZM77.6911 43.9738C76.2693 43.9738 75.1522 43.4674 74.3397 42.4547C73.5273 41.4071 73.121 40.1674 73.121 38.7357C73.121 37.3039 73.5273 36.0817 74.3397 35.069C75.1522 34.0214 76.2693 33.4976 77.6911 33.4976H82.1088C83.5306 33.4976 84.6477 34.0214 85.4602 35.069C86.2726 36.0817 86.6789 37.3039 86.6789 38.7357C86.6789 40.1674 86.2726 41.4071 85.4602 42.4547C84.6477 43.4674 83.5306 43.9738 82.1088 43.9738H77.6911ZM64.0419 38.61C62.6201 38.61 61.5029 38.1036 60.6905 37.0909C59.878 36.0433 59.4718 34.8036 59.4718 33.3719C59.4718 31.9401 59.878 30.7179 60.6905 29.7052C61.5029 28.6576 62.6201 28.1338 64.0419 28.1338H79.184C80.6058 28.1338 81.7229 28.6576 82.5353 29.7052C83.3478 30.7179 83.754 31.9401 83.754 33.3719C83.754 34.8036 83.3478 36.0433 82.5353 37.0909C81.7229 38.1036 80.6058 38.61 79.184 38.61C77.7622 38.61 64.0419 38.61 64.0419 38.61Z" fill="#343434"/>
<path d="M38.5015 65.4287C37.2217 65.4287 36.2161 64.909 35.4848 63.8697C34.7535 62.865 34.3879 61.6525 34.3879 60.2321C34.3879 58.8117 34.7535 57.5991 35.4848 56.5944C36.2161 55.5551 37.2217 55.0355 38.5015 55.0355H49.4985C50.7783 55.0355 51.7839 55.5551 52.5152 56.5944C53.2465 57.5991 53.6121 58.8117 53.6121 60.2321C53.6121 61.6525 53.2465 62.865 52.5152 63.8697C51.7839 64.909 50.7783 65.4287 49.4985 65.4287H38.5015ZM34.1136 58.777C32.8338 58.777 31.8283 58.2747 31.097 57.27C30.3657 56.2307 30 55.0008 30 53.5804C30 52.16 30.3657 50.9474 31.097 49.9428C31.8283 48.9034 32.8338 48.3838 34.1136 48.3838H37.2125C38.4923 48.3838 39.4979 48.9034 40.2292 49.9428C40.9605 50.9474 41.3262 52.16 41.3262 53.5804C41.3262 55.0008 40.9605 56.2307 40.2292 57.27C39.4979 58.2747 38.4923 58.777 37.2125 58.777H34.1136ZM50.7875 58.777C49.5077 58.777 48.5021 58.2747 47.7708 57.27C47.0395 56.2307 46.6738 55.0008 46.6738 53.5804C46.6738 52.16 47.0395 50.9474 47.7708 49.9428C48.5021 48.9034 49.5077 48.3838 50.7875 48.3838H53.8864C55.1662 48.3838 56.1717 48.9034 56.903 49.9428C57.6343 50.9474 58 52.16 58 53.5804C58 55.0008 57.6343 56.2307 56.903 57.27C56.1717 58.2747 55.1662 58.777 53.8864 58.777H50.7875ZM34.1136 52.1253C32.8338 52.1253 31.8283 51.623 31.097 50.6183C30.3657 49.579 30 48.3491 30 46.9287C30 45.5083 30.3657 44.2958 31.097 43.2911C31.8283 42.2517 32.8338 41.7321 34.1136 41.7321H37.2125C38.4923 41.7321 39.4979 42.2517 40.2292 43.2911C40.9605 44.2958 41.3262 45.5083 41.3262 46.9287C41.3262 48.3491 40.9605 49.579 40.2292 50.6183C39.4979 51.623 38.4923 52.1253 37.2125 52.1253H34.1136ZM50.7875 52.1253C49.5077 52.1253 48.5021 51.623 47.7708 50.6183C47.0395 49.579 46.6738 48.3491 46.6738 46.9287C46.6738 45.5083 47.0395 44.2958 47.7708 43.2911C48.5021 42.2517 49.5077 41.7321 50.7875 41.7321H53.8864C55.1662 41.7321 56.1717 42.2517 56.903 43.2911C57.6343 44.2958 58 45.5083 58 46.9287C58 48.3491 57.6343 49.579 56.903 50.6183C56.1717 51.623 55.1662 52.1253 53.8864 52.1253H50.7875ZM34.1136 45.4737C32.8338 45.4737 31.8283 44.9713 31.097 43.9666C30.3657 42.9273 30 41.6974 30 40.277C30 38.8566 30.3657 37.6441 31.097 36.6394C31.8283 35.6001 32.8338 35.0804 34.1136 35.0804H37.2125C38.4923 35.0804 39.4979 35.6001 40.2292 36.6394C40.9605 37.6441 41.3262 38.8566 41.3262 40.277C41.3262 41.6974 40.9605 42.9273 40.2292 43.9666C39.4979 44.9713 38.4923 45.4737 37.2125 45.4737H34.1136ZM50.7875 45.4737C49.5077 45.4737 48.5021 44.9713 47.7708 43.9666C47.0395 42.9273 46.6738 41.6974 46.6738 40.277C46.6738 38.8566 47.0395 37.6441 47.7708 36.6394C48.5021 35.6001 49.5077 35.0804 50.7875 35.0804H53.8864C55.1662 35.0804 56.1717 35.6001 56.903 36.6394C57.6343 37.6441 58 38.8566 58 40.277C58 41.6974 57.6343 42.9273 56.903 43.9666C56.1717 44.9713 55.1662 45.4737 53.8864 45.4737H50.7875ZM37.6239 38.822C36.3441 38.822 35.3386 38.3196 34.6072 37.3149C33.8759 36.2756 33.5103 35.0458 33.5103 33.6253C33.5103 32.2049 33.8759 30.9924 34.6072 29.9877C35.3386 28.9484 36.3441 28.4287 37.6239 28.4287H49.4985C50.7783 28.4287 51.7839 28.9484 52.5152 29.9877C53.2465 30.9924 53.6121 32.2049 53.6121 33.6253C53.6121 35.0458 53.2465 36.2756 52.5152 37.3149C51.7839 38.3196 50.7783 38.822 49.4985 38.822H37.6239Z" fill="#343434"/>
<path d="M17.4304 65.0001C14.5829 65.0001 12.3455 65.1906 10.7184 63.5716C9.09123 62.0065 8.27766 60.1176 8.27766 57.9049C8.27766 55.6922 9.09123 53.8033 10.7184 52.2382C12.3455 50.6192 14.5829 49.8097 17.4304 49.8097H15.4692C18.3168 49.8097 20.5541 50.6192 22.1812 52.2382C23.8084 53.8033 24.622 55.6922 24.622 57.9049C24.622 60.1176 23.8084 62.0065 22.1812 63.5716C20.5541 65.1906 18.3168 65.0001 15.4692 65.0001H17.4304ZM17.4304 55.6382C14.5829 55.6382 12.3455 54.8557 10.7184 53.2906C9.09123 51.6716 8 50.2127 8 48C8 45.7873 8.42706 45.2763 9.5 44C11.1272 42.381 11.6525 41.5 14.5 41.5H18C20.8475 41.5 22.3728 42.381 24 44C24.6787 45.2763 25.5 46.2873 25.5 48.5C25.5 50.7127 24.1272 52.381 22.5 54C20.8728 55.5651 18.3168 55.6382 15.4692 55.6382H17.4304ZM17.4304 45.2763C14.5829 45.2763 12.3455 44.4938 10.7184 42.9287C9.09123 41.3097 8.27766 39.3938 8.27766 37.1811C8.27766 34.9684 9.09123 33.0795 10.7184 31.5144C12.3455 29.8954 14.5829 29.0859 17.4304 29.0859H15.4692C18.3168 29.0859 20.5541 29.8954 22.1812 31.5144C23.8084 33.0795 24.622 34.9684 24.622 37.1811C24.622 39.3938 23.8084 41.3097 22.1812 42.9287C20.5541 44.4938 18.3168 45.2763 15.4692 45.2763H17.4304ZM7.66747 34.2388C4.81996 34.2388 2.58263 33.4562 0.955476 31.8911C0 30.7331 0 30.6485 0 28.4358C0 27.1635 0.292859 26.6497 0.955476 25.9904C2.58263 24.3713 4.81996 23.5618 7.66747 23.5618H33.9213C36.7689 23.5618 39.0062 24.3713 40.6333 25.9904C41.2482 26.6022 41.5 26.7874 41.5 29.0001C41.5 31.2128 41.5 31.0001 40.6333 31.8911C39.0062 33.4562 36.7689 34.2388 33.9213 34.2388H7.66747ZM15.3928 26.5525C12.5452 26.5525 11.2981 25.77 9.67097 24.2049C8.685 23.2565 8 22.2128 8 20.0001C8 17.7874 9.40723 16.4177 10.3329 15.7906C11.5 15 12.5452 14.362 15.3928 14.362H16.327C19.1745 14.362 21.4118 14.1716 23.039 15.7906C24 16.7469 25 17.7874 25 20.0001C25 22.2128 24.1679 23.1191 23.039 24.2049C21.4118 25.77 19.1745 26.5525 16.327 26.5525H15.3928ZM20.2979 16.1906C17.4504 16.1906 16.2033 15.4081 14.5761 13.843C12.949 12.224 12.1354 10.3081 12.1354 8.09538C12.1354 5.88268 12.949 3.9938 14.5761 2.42872C16.2033 0.809669 18.4406 0.000144958 21.2881 0.000144958H34.8473C37.6948 0.000144958 39.9321 0.809669 41.5593 2.42872C43.1864 3.9938 44 5.88268 44 8.09538C44 10.3081 43.1864 12.224 41.5593 13.843C39.9321 15.4081 37.6948 16.1906 34.8473 16.1906H20.2979Z" fill="#343434"/>
<path d="M100.778 60.4581C100.778 62.8393 99.0667 63.9989 96.0081 63.9989C92.7111 63.9989 91 62.8393 91 60.4581C91 58.077 92.9556 57 96.0081 57C98.707 57 100.778 58.077 100.778 60.4581Z" fill="#E9E9E9"/>
<path fill-rule="evenodd" clip-rule="evenodd" d="M95.3995 63.9999C96.3195 63.4436 96.9701 62.0753 96.9701 60.4755C96.9701 58.9216 96.3564 57.5861 95.4781 57.001C94.4721 57.0516 93.6028 57.2297 92.9049 57.5445C92.3491 58.2396 91.9946 59.2945 91.9946 60.4755C91.9946 61.722 92.3896 62.828 92.9993 63.5188C93.6461 63.7891 94.4474 63.9488 95.3995 63.9999Z" fill="#5B3716"/>
<path d="M115 60.4581C115 62.8393 113.289 63.9989 110.23 63.9989C106.933 63.9989 105.222 62.8393 105.222 60.4581C105.222 58.077 107.178 57 110.23 57C112.929 57 115 58.077 115 60.4581Z" fill="#E9E9E9"/>
<path fill-rule="evenodd" clip-rule="evenodd" d="M109.331 63.9999C110.251 63.4436 110.902 62.0753 110.902 60.4755C110.902 58.9216 110.288 57.5861 109.41 57.001C108.404 57.0516 107.534 57.2297 106.836 57.5445C106.281 58.2396 105.926 59.2945 105.926 60.4755C105.926 61.722 106.321 62.828 106.931 63.5188C107.578 63.7891 108.379 63.9488 109.331 63.9999Z" fill="#5B3716"/>
<path d="M29 9.28564C28 10.9285 25.7092 12.5713 23.5 12.5713C21.2909 12.5713 19 10.9285 18 9.28564C19 7.64282 21.2909 6 23.5 6C25.7092 6 28 7.64282 29 9.28564Z" fill="#E9E9E9"/>
<path d="M27.1586 9.28564C27.1586 11.1003 26.0393 12.5713 24.6586 12.5713C23.2778 12.5713 22.1585 11.1003 22.1585 9.28564C22.1585 7.47103 23.2778 6 24.6586 6C26.0393 6 27.1586 7.47103 27.1586 9.28564Z" fill="#343434"/>
<path d="M43 9.28564C42 10.9285 39.7092 12.5713 37.5 12.5713C35.2909 12.5713 33 10.9285 32 9.28564C33 7.64282 35.2909 6 37.5 6C39.7092 6 42 7.64282 43 9.28564Z" fill="#E9E9E9"/>
<path d="M41.1593 9.28564C41.1593 11.1003 40.04 12.5713 38.6593 12.5713C37.2786 12.5713 36.1593 11.1003 36.1593 9.28564C36.1593 7.47103 37.2786 6 38.6593 6C40.04 6 41.1593 7.47103 41.1593 9.28564Z" fill="#343434"/>
</svg>
