<svg width="142" height="66" viewBox="0 0 142 66" fill="none" xmlns="http://www.w3.org/2000/svg">
<path d="M117.413 65.429C115.991 65.429 114.874 64.9052 114.062 63.8576C113.249 62.8449 112.843 61.6227 112.843 60.1909C112.843 58.7592 113.249 57.537 114.062 56.5243C114.874 55.4766 115.991 54.9528 117.413 54.9528H134.505C135.927 54.9528 137.044 55.4766 137.856 56.5243C138.669 57.537 139.075 58.7592 139.075 60.1909C139.075 61.6227 138.669 62.8449 137.856 63.8576C137.044 64.9052 135.927 65.429 134.505 65.429H117.413ZM134.962 58.7243C133.54 58.7243 132.423 58.2179 131.611 57.2052C130.798 56.1576 130.392 54.9179 130.392 53.4862C130.392 52.0544 130.798 50.8322 131.611 49.8195C132.423 48.7719 133.54 48.2481 134.962 48.2481H137.43C138.852 48.2481 139.969 48.7719 140.781 49.8195C141.594 50.8322 142 52.0544 142 53.4862C142 54.9179 141.594 56.1576 140.781 57.2052C139.969 58.2179 138.852 58.7243 137.43 58.7243H134.962ZM120.338 52.0195C118.916 52.0195 117.799 51.5132 116.986 50.5005C116.174 49.4528 115.768 48.2132 115.768 46.7814C115.768 45.3497 116.174 44.1274 116.986 43.1147C117.799 42.0671 118.916 41.5433 120.338 41.5433H134.505C135.927 41.5433 137.044 42.0671 137.856 43.1147C138.669 44.1274 139.075 45.3497 139.075 46.7814C139.075 48.2132 138.669 49.4528 137.856 50.5005C137.044 51.5132 135.927 52.0195 134.505 52.0195H120.338ZM115.463 45.3147C114.041 45.3147 112.924 44.8084 112.112 43.7957C111.299 42.7481 110.893 41.5084 110.893 40.0766C110.893 38.6449 111.299 37.4227 112.112 36.41C112.924 35.3624 114.041 34.8386 115.463 34.8386H119.881C121.303 34.8386 122.42 35.3624 123.232 36.41C124.045 37.4227 124.451 38.6449 124.451 40.0766C124.451 41.5084 124.045 42.7481 123.232 43.7957C122.42 44.8084 121.303 45.3147 119.881 45.3147H115.463ZM120.338 38.61C118.916 38.61 117.799 38.1036 116.986 37.0909C116.174 36.0433 115.768 34.8036 115.768 33.3719C115.768 31.9401 116.174 30.7179 116.986 29.7052C117.799 28.6576 118.916 28.1338 120.338 28.1338H137.43C138.852 28.1338 139.969 28.6576 140.781 29.7052C141.594 30.7179 142 31.9401 142 33.3719C142 34.8036 141.594 36.0433 140.781 37.0909C139.969 38.1036 138.852 38.61 137.43 38.61H120.338Z" fill="#343434"/>
<path d="M96.0897 65.429C94.6679 65.429 93.5508 64.9052 92.7383 63.8576C91.9259 62.8449 91.5197 61.6227 91.5197 60.1909C91.5197 58.7592 91.9259 57.537 92.7383 56.5243C93.5508 55.4766 94.6679 54.9528 96.0897 54.9528H111.232C112.654 54.9528 113.771 55.4766 114.583 56.5243C115.396 57.537 115.802 58.7592 115.802 60.1909C115.802 61.6227 115.396 62.8449 114.583 63.8576C113.771 64.9052 112.654 65.429 111.232 65.429H96.0897ZM93.1649 58.7243C91.7431 58.7243 90.626 58.2179 89.8135 57.2052C89.001 56.1576 88.5948 54.9179 88.5948 53.4862C88.5948 52.0544 89.001 50.8322 89.8135 49.8195C90.626 48.7719 91.7431 48.2481 93.1649 48.2481H94.6578C96.0796 48.2481 97.1967 48.7719 98.0091 49.8195C98.8216 50.8322 99.2278 52.0544 99.2278 53.4862C99.2278 54.9179 98.8216 56.1576 98.0091 57.2052C97.1967 58.2179 96.0796 58.7243 94.6578 58.7243H93.1649ZM109.739 58.7243C108.317 58.7243 107.2 58.2179 106.388 57.2052C105.575 56.1576 105.169 54.9179 105.169 53.4862C105.169 52.0544 105.575 50.8322 106.388 49.8195C107.2 48.7719 108.317 48.2481 109.739 48.2481H112.207C113.629 48.2481 114.746 48.7719 115.558 49.8195C116.371 50.8322 116.777 52.0544 116.777 53.4862C116.777 54.9179 116.371 56.1576 115.558 57.2052C114.746 58.2179 112.654 58.7243 111.232 58.7243H109.739ZM92.1899 52.0195C90.7681 52.0195 89.651 51.5132 88.8386 50.5005C88.0261 49.4528 87.6199 48.2132 87.6199 46.7814C87.6199 45.3497 88.0261 44.1274 88.8386 43.1147C89.651 42.0671 90.7681 41.5433 92.1899 41.5433H94.6578C96.0796 41.5433 97.1967 42.0671 98.0091 43.1147C98.8216 44.1274 99.2278 45.3497 99.2278 46.7814C99.2278 48.2132 98.8216 49.4528 98.0091 50.5005C97.1967 51.5132 96.0796 52.0195 94.6578 52.0195H92.1899ZM109.739 52.0195C108.317 52.0195 107.2 51.5132 106.388 50.5005C105.575 49.4528 105.169 48.2132 105.169 46.7814C105.169 45.3497 105.575 44.1274 106.388 43.1147C107.2 42.0671 108.317 41.5433 109.739 41.5433H112.207C113.629 41.5433 114.746 42.0671 115.558 43.1147C116.371 44.1274 116.777 45.3497 116.777 46.7814C116.777 48.2132 116.371 49.4528 115.558 50.5005C114.746 51.5132 113.629 52.0195 112.207 52.0195H109.739ZM92.1899 45.3147C90.7681 45.3147 89.651 44.8084 88.8386 43.7957C88.0261 42.7481 87.6199 41.5084 87.6199 40.0766C87.6199 38.6449 88.0261 37.4227 88.8386 36.41C89.651 35.3624 90.7681 34.8386 92.1899 34.8386H94.6578C96.0796 34.8386 97.1967 35.3624 98.0091 36.41C98.8216 37.4227 99.2278 38.6449 99.2278 40.0766C99.2278 41.5084 98.8216 42.7481 98.0091 43.7957C97.1967 44.8084 96.0796 45.3147 94.6578 45.3147H92.1899ZM109.739 45.3147C108.317 45.3147 107.2 44.8084 106.388 43.7957C105.575 42.7481 105.169 41.5084 105.169 40.0766C105.169 38.6449 105.575 37.4227 106.388 36.41C107.2 35.3624 108.317 34.8386 109.739 34.8386H112.207C113.629 34.8386 114.746 35.3624 115.558 36.41C116.371 37.4227 116.777 38.6449 116.777 40.0766C116.777 41.5084 116.371 42.7481 115.558 43.7957C114.746 44.8084 113.629 45.3147 112.207 45.3147H109.739ZM92.1899 38.61C90.7681 38.61 89.651 38.1036 88.8386 37.0909C88.0261 36.0433 87.6199 34.8036 87.6199 33.3719C87.6199 31.9401 88.0261 30.7179 88.8386 29.7052C89.651 28.6576 90.7681 28.1338 92.1899 28.1338H94.6578C96.0796 28.1338 97.1967 28.6576 98.0091 29.7052C98.8216 30.7179 99.2278 31.9401 99.2278 33.3719C99.2278 34.8036 98.8216 36.0433 98.0091 37.0909C97.1967 38.1036 96.0796 38.61 94.6578 38.61H92.1899ZM109.739 38.61C108.317 38.61 107.2 38.1036 106.388 37.0909C105.575 36.0433 105.169 34.8036 105.169 33.3719C105.169 31.9401 105.575 30.7179 106.388 29.7052C107.2 28.6576 108.317 28.1338 109.739 28.1338H112.207C113.629 28.1338 114.746 28.6576 115.558 29.7052C116.371 30.7179 116.777 31.9401 116.777 33.3719C116.777 34.8036 116.371 36.0433 115.558 37.0909C114.746 38.1036 113.629 38.61 112.207 38.61H109.739Z" fill="#343434"/>
<path d="M60.1421 65.429C58.7203 65.429 57.6032 64.9052 56.7907 63.8576C55.9782 62.8449 55.572 61.6227 55.572 60.1909C55.572 58.7592 55.9782 57.537 56.7907 56.5243C57.6032 55.4766 58.7203 54.9528 60.1421 54.9528H63.5848C65.0066 54.9528 66.1238 55.4766 66.9362 56.5243C67.7487 57.537 68.1549 58.7592 68.1549 60.1909C68.1549 61.6227 67.7487 62.8449 66.9362 63.8576C66.1238 64.9052 65.0066 65.429 63.5848 65.429H60.1421ZM60.1421 58.7243C58.7203 58.7243 57.6032 58.2179 56.7907 57.2052C55.9782 56.1576 55.572 54.9179 55.572 53.4862C55.572 52.0544 55.9782 50.8322 56.7907 49.8195C57.6032 48.7719 58.7203 48.2481 60.1421 48.2481H63.5848C65.0066 48.2481 66.1238 48.7719 66.9362 49.8195C67.7487 50.8322 68.1549 52.0544 68.1549 53.4862C68.1549 54.9179 67.7487 56.1576 66.9362 57.2052C66.1238 58.2179 65.0066 58.7243 63.5848 58.7243H60.1421ZM60.1421 52.0195C58.7203 52.0195 57.6032 51.5132 56.7907 50.5005C55.9782 49.4528 55.572 48.2132 55.572 46.7814C55.572 45.3497 55.9782 44.1274 56.7907 43.1147C57.6032 42.0671 58.7203 41.5433 60.1421 41.5433H63.5848C65.0066 41.5433 66.1238 42.0671 66.9362 43.1147C67.7487 44.1274 68.1549 45.3497 68.1549 46.7814C68.1549 48.2132 67.7487 49.4528 66.9362 50.5005C66.1238 51.5132 65.0066 52.0195 63.5848 52.0195H60.1421ZM60.1421 45.3147C58.7203 45.3147 57.6032 44.8084 56.7907 43.7957C55.9782 42.7481 55.572 41.5084 55.572 40.0766C55.572 38.6449 55.9782 37.4227 56.7907 36.41C57.6032 35.3624 58.7203 34.8386 60.1421 34.8386H63.5848C65.0066 34.8386 66.1238 35.3624 66.9362 36.41C67.7487 37.4227 68.1549 38.6449 68.1549 40.0766C68.1549 41.5084 67.7487 42.7481 66.9362 43.7957C66.1238 44.8084 65.0066 45.3147 63.5848 45.3147H60.1421ZM77.6911 43.9738C76.2693 43.9738 75.1522 43.4674 74.3397 42.4547C73.5273 41.4071 73.121 40.1674 73.121 38.7357C73.121 37.3039 73.5273 36.0817 74.3397 35.069C75.1522 34.0214 76.2693 33.4976 77.6911 33.4976H82.1088C83.5306 33.4976 84.6477 34.0214 85.4602 35.069C86.2726 36.0817 86.6789 37.3039 86.6789 38.7357C86.6789 40.1674 86.2726 41.4071 85.4602 42.4547C84.6477 43.4674 83.5306 43.9738 82.1088 43.9738H77.6911ZM64.0419 38.61C62.6201 38.61 61.5029 38.1036 60.6905 37.0909C59.878 36.0433 59.4718 34.8036 59.4718 33.3719C59.4718 31.9401 59.878 30.7179 60.6905 29.7052C61.5029 28.6576 62.6201 28.1338 64.0419 28.1338H79.184C80.6058 28.1338 81.7229 28.6576 82.5353 29.7052C83.3478 30.7179 83.754 31.9401 83.754 33.3719C83.754 34.8036 83.3478 36.0433 82.5353 37.0909C81.7229 38.1036 80.6058 38.61 79.184 38.61C77.7622 38.61 64.0419 38.61 64.0419 38.61Z" fill="#343434"/>
<path d="M38.5015 65.4287C37.2217 65.4287 36.2161 64.909 35.4848 63.8697C34.7535 62.865 34.3879 61.6525 34.3879 60.2321C34.3879 58.8117 34.7535 57.5991 35.4848 56.5944C36.2161 55.5551 37.2217 55.0355 38.5015 55.0355H49.4985C50.7783 55.0355 51.7839 55.5551 52.5152 56.5944C53.2465 57.5991 53.6121 58.8117 53.6121 60.2321C53.6121 61.6525 53.2465 62.865 52.5152 63.8697C51.7839 64.909 50.7783 65.4287 49.4985 65.4287H38.5015ZM34.1136 58.777C32.8338 58.777 31.8283 58.2747 31.097 57.27C30.3657 56.2307 30 55.0008 30 53.5804C30 52.16 30.3657 50.9474 31.097 49.9428C31.8283 48.9034 32.8338 48.3838 34.1136 48.3838H37.2125C38.4923 48.3838 39.4979 48.9034 40.2292 49.9428C40.9605 50.9474 41.3262 52.16 41.3262 53.5804C41.3262 55.0008 40.9605 56.2307 40.2292 57.27C39.4979 58.2747 38.4923 58.777 37.2125 58.777H34.1136ZM50.7875 58.777C49.5077 58.777 48.5021 58.2747 47.7708 57.27C47.0395 56.2307 46.6738 55.0008 46.6738 53.5804C46.6738 52.16 47.0395 50.9474 47.7708 49.9428C48.5021 48.9034 49.5077 48.3838 50.7875 48.3838H53.8864C55.1662 48.3838 56.1717 48.9034 56.903 49.9428C57.6343 50.9474 58 52.16 58 53.5804C58 55.0008 57.6343 56.2307 56.903 57.27C56.1717 58.2747 55.1662 58.777 53.8864 58.777H50.7875ZM34.1136 52.1253C32.8338 52.1253 31.8283 51.623 31.097 50.6183C30.3657 49.579 30 48.3491 30 46.9287C30 45.5083 30.3657 44.2958 31.097 43.2911C31.8283 42.2517 32.8338 41.7321 34.1136 41.7321H37.2125C38.4923 41.7321 39.4979 42.2517 40.2292 43.2911C40.9605 44.2958 41.3262 45.5083 41.3262 46.9287C41.3262 48.3491 40.9605 49.579 40.2292 50.6183C39.4979 51.623 38.4923 52.1253 37.2125 52.1253H34.1136ZM50.7875 52.1253C49.5077 52.1253 48.5021 51.623 47.7708 50.6183C47.0395 49.579 46.6738 48.3491 46.6738 46.9287C46.6738 45.5083 47.0395 44.2958 47.7708 43.2911C48.5021 42.2517 49.5077 41.7321 50.7875 41.7321H53.8864C55.1662 41.7321 56.1717 42.2517 56.903 43.2911C57.6343 44.2958 58 45.5083 58 46.9287C58 48.3491 57.6343 49.579 56.903 50.6183C56.1717 51.623 55.1662 52.1253 53.8864 52.1253H50.7875ZM34.1136 45.4737C32.8338 45.4737 31.8283 44.9713 31.097 43.9666C30.3657 42.9273 30 41.6974 30 40.277C30 38.8566 30.3657 37.6441 31.097 36.6394C31.8283 35.6001 32.8338 35.0804 34.1136 35.0804H37.2125C38.4923 35.0804 39.4979 35.6001 40.2292 36.6394C40.9605 37.6441 41.3262 38.8566 41.3262 40.277C41.3262 41.6974 40.9605 42.9273 40.2292 43.9666C39.4979 44.9713 38.4923 45.4737 37.2125 45.4737H34.1136ZM50.7875 45.4737C49.5077 45.4737 48.5021 44.9713 47.7708 43.9666C47.0395 42.9273 46.6738 41.6974 46.6738 40.277C46.6738 38.8566 47.0395 37.6441 47.7708 36.6394C48.5021 35.6001 49.5077 35.0804 50.7875 35.0804H53.8864C55.1662 35.0804 56.1717 35.6001 56.903 36.6394C57.6343 37.6441 58 38.8566 58 40.277C58 41.6974 57.6343 42.9273 56.903 43.9666C56.1717 44.9713 55.1662 45.4737 53.8864 45.4737H50.7875ZM37.6239 38.822C36.3441 38.822 35.3386 38.3196 34.6072 37.3149C33.8759 36.2756 33.5103 35.0458 33.5103 33.6253C33.5103 32.2049 33.8759 30.9924 34.6072 29.9877C35.3386 28.9484 36.3441 28.4287 37.6239 28.4287H49.4985C50.7783 28.4287 51.7839 28.9484 52.5152 29.9877C53.2465 30.9924 53.6121 32.2049 53.6121 33.6253C53.6121 35.0458 53.2465 36.2756 52.5152 37.3149C51.7839 38.3196 50.7783 38.822 49.4985 38.822H37.6239Z" fill="#343434"/>
<path d="M17.4304 65.0001C14.5829 65.0001 12.3455 65.1906 10.7184 63.5716C9.09123 62.0065 8.27766 60.1176 8.27766 57.9049C8.27766 55.6922 9.09123 53.8033 10.7184 52.2382C12.3455 50.6192 14.5829 49.8097 17.4304 49.8097H15.4692C18.3168 49.8097 20.5541 50.6192 22.1812 52.2382C23.8084 53.8033 24.622 55.6922 24.622 57.9049C24.622 60.1176 23.8084 62.0065 22.1812 63.5716C20.5541 65.1906 18.3168 65.0001 15.4692 65.0001H17.4304ZM17.4304 55.6382C14.5829 55.6382 12.3455 54.8557 10.7184 53.2906C9.09123 51.6716 8.27766 49.7557 8.27766 47.543C8.27766 45.3303 9.09123 43.4414 10.7184 41.8763C12.3455 40.2573 14.5829 39.4478 17.4304 39.4478H15.4692C18.3168 39.4478 20.5541 40.2573 22.1812 41.8763C23.8084 43.4414 24.622 45.3303 24.622 47.543C24.622 49.7557 23.8084 51.6716 22.1812 53.2906C20.5541 54.8557 18.3168 55.6382 15.4692 55.6382H17.4304ZM17.4304 45.2763C14.5829 45.2763 12.3455 44.4938 10.7184 42.9287C9.09123 41.3097 8.27766 39.3938 8.27766 37.1811C8.27766 34.9684 9.09123 33.0795 10.7184 31.5144C12.3455 29.8954 14.5829 29.0859 17.4304 29.0859H15.4692C18.3168 29.0859 20.5541 29.8954 22.1812 31.5144C23.8084 33.0795 24.622 34.9684 24.622 37.1811C24.622 39.3938 23.8084 41.3097 22.1812 42.9287C20.5541 44.4938 18.3168 45.2763 15.4692 45.2763H17.4304ZM7.66747 34.2388C4.81996 34.2388 2.58263 33.4562 0.955476 31.8911C0 30.7331 0 30.6485 0 28.4358C0 26.2231 0.292859 26.6497 0.955476 25.9904C2.58263 24.3713 4.81996 23.5618 7.66747 23.5618H33.9213C36.7689 23.5618 39.0062 24.3713 40.6333 25.9904C41.2482 26.6022 41.5 26.7874 41.5 29.0001C41.5 31.2128 41.5 31.0001 40.6333 31.8911C39.0062 33.4562 36.7689 34.2388 33.9213 34.2388H7.66747ZM15.3928 26.5525C12.5452 26.5525 11.2981 25.77 9.67097 24.2049C8.685 23.2565 8 22.2128 8 20.0001C8 17.7874 8.85322 16.6412 10 15.5001C11.6272 13.8811 12.5452 13.362 15.3928 13.362H18.327C21.1745 13.362 23.4118 14.1716 25.039 15.7906C26 16.7469 27 17.7874 27 20.0001C27 22.2128 26.1679 23.1191 25.039 24.2049C23.4118 25.77 21.1745 26.5525 18.327 26.5525H15.3928ZM20.2979 16.1906C17.4504 16.1906 16.2033 15.4081 14.5761 13.843C12.949 12.224 12.1354 10.3081 12.1354 8.09538C12.1354 5.88268 12.949 3.9938 14.5761 2.42872C16.2033 0.809669 18.4406 0.000144958 21.2881 0.000144958H34.8473C37.6948 0.000144958 39.9321 0.809669 41.5593 2.42872C43.1864 3.9938 44 5.88268 44 8.09538C44 10.3081 43.1864 12.224 41.5593 13.843C39.9321 15.4081 37.6948 16.1906 34.8473 16.1906H20.2979Z" fill="#343434"/>
<path d="M103.5 60.3712C103.5 61.7087 102.537 62.3601 100.817 62.3601C98.9625 62.3601 98 61.7087 98 60.3712C98 59.0337 99.1 58.4287 100.817 58.4287C102.335 58.4287 103.5 59.0337 103.5 60.3712Z" fill="#E9E9E9"/>
<path fill-rule="evenodd" clip-rule="evenodd" d="M100.475 62.3611C100.992 62.0486 101.358 61.28 101.358 60.3814C101.358 59.5085 101.013 58.7583 100.519 58.4297C99.9531 58.4581 99.4642 58.5582 99.0716 58.735C98.759 59.1255 98.5596 59.718 98.5596 60.3814C98.5596 61.0816 98.7817 61.7028 99.1246 62.0908C99.4884 62.2426 99.9392 62.3324 100.475 62.3611Z" fill="#5B3716"/>
<path d="M111.5 60.3712C111.5 61.7087 110.537 62.3601 108.817 62.3601C106.963 62.3601 106 61.7087 106 60.3712C106 59.0337 107.1 58.4287 108.817 58.4287C110.335 58.4287 111.5 59.0337 111.5 60.3712Z" fill="#E9E9E9"/>
<path fill-rule="evenodd" clip-rule="evenodd" d="M108.311 62.3611C108.829 62.0486 109.195 61.28 109.195 60.3814C109.195 59.5085 108.849 58.7583 108.355 58.4297C107.79 58.4581 107.301 58.5582 106.908 58.735C106.595 59.1255 106.396 59.718 106.396 60.3814C106.396 61.0816 106.618 61.7028 106.961 62.0908C107.325 62.2426 107.776 62.3324 108.311 62.3611Z" fill="#5B3716"/>
<path d="M30.0727 8.42871C29.157 9.92871 27.0592 11.4287 25.0363 11.4287C23.0134 11.4287 20.9157 9.92871 20 8.42871C20.9157 6.92871 23.0134 5.42871 25.0363 5.42871C27.0592 5.42871 29.157 6.92871 30.0727 8.42871Z" fill="#E9E9E9"/>
<path d="M28.3864 8.42871C28.3864 10.0856 27.3615 11.4287 26.0972 11.4287C24.8329 11.4287 23.808 10.0856 23.808 8.42871C23.808 6.77186 24.8329 5.42871 26.0972 5.42871C27.3615 5.42871 28.3864 6.77186 28.3864 8.42871Z" fill="#343434"/>
<path d="M42.8925 8.42871C41.9768 9.92871 39.8791 11.4287 37.8562 11.4287C35.8333 11.4287 33.7355 9.92871 32.8198 8.42871C33.7355 6.92871 35.8333 5.42871 37.8562 5.42871C39.8791 5.42871 41.9768 6.92871 42.8925 8.42871Z" fill="#E9E9E9"/>
<path d="M41.2068 8.42871C41.2068 10.0856 40.1818 11.4287 38.9175 11.4287C37.6532 11.4287 36.6283 10.0856 36.6283 8.42871C36.6283 6.77186 37.6532 5.42871 38.9175 5.42871C40.1818 5.42871 41.2068 6.77186 41.2068 8.42871Z" fill="#343434"/>
</svg>
